<?xml version="1.0" encoding="UTF-8"?>
<svg id="Layer_1" data-name="Layer 1" xmlns="http://www.w3.org/2000/svg" viewBox="0 0 144 144">
  <defs>
    <style>
      .cls-1 {
        fill: #fff;
        stroke-width: 0px;
      }
    </style>
  </defs>
  <path class="cls-1" d="M30.45,27.76c7.73-1.02,15.53,2.07,20.6,7.94.15.17.31.3.47.4,0,0,.01,0,.01,0,0,0,0,0,0,0,4.67,4.63,11.01,7.41,17.59,7.8,1.82.11,3.61-.04,5.4-.29,1.19-.17,3.29-.73,3.7.81.21.8.06,1.8.06,2.62,0,1.14,0,2.28-.01,3.42,0,2.38-.02,4.77-.03,7.15,0,.27.05.5.13.71,0,2.2-.02,4.4-.03,6.6,0,2.13-.26,4.41.15,6.52.83,4.29,5.04,4.17,8.46,3.72,7.73-1.02,15.52,2.08,20.6,7.94.15.17.3.29.46.39,0,0,0,0,0,.01,0,2.22-.01,4.43-.02,6.64,0,2.13-.26,4.42.15,6.52.82,4.29,5.04,4.18,8.46,3.72.31-.04.62-.07.93-.1-.19-.87-.38-1.75-.56-2.62-.08-.37-.16-.74-.24-1.12-.38.04-.76.09-1.15.14-1.19.17-3.29.73-3.7-.81-.22-.8-.07-1.8-.06-2.61,0-1.15.01-2.29.01-3.43.01-2.38.02-4.77.03-7.15,0-.95-.56-1.53-1.25-1.75h0s0,0,0,0c-.08-.18-.18-.37-.33-.54-4.75-5.49-11.7-8.79-18.93-9.21-1.82-.11-3.61.04-5.4.29-1.19.17-3.29.73-3.7-.81-.21-.8-.06-1.8-.06-2.62,0-1.14,0-2.28.01-3.42,0-2.38.02-4.77.03-7.15,0-.27-.05-.5-.13-.71,0-2.2.02-4.4.03-6.6,0-2.13.26-4.41-.15-6.52-.83-4.29-5.04-4.17-8.46-3.72-7.73,1.02-15.52-2.08-20.6-7.94-.14-.16-.29-.27-.44-.37,0,0-.01-.01-.02-.02-4.67-4.65-11.03-7.43-17.63-7.82-1.82-.1-3.6.04-5.4.29-1.19.17-3.29.73-3.7-.81-.22-.8-.07-1.8-.06-2.61,0-1.15,0-2.29.01-3.42.01-2.38.02-4.77.03-7.15,0-.49-.14-.88-.39-1.17-1.15,1.66-2.3,3.25-3.46,4.9,0,0,0,0,0,0v.07c0,1.22,0,2.43-.01,3.65,0,2.13-.26,4.42.15,6.52.82,4.29,5.04,4.18,8.46,3.72Z"/>
  <path class="cls-1" d="M35.44,22.63c7.73-1.02,15.53,2.07,20.6,7.94.18.21.38.36.58.46,0,0,.01,0,.02,0,4.66,4.6,10.98,7.35,17.53,7.73,1.82.11,3.61-.04,5.4-.29,1.19-.17,3.29-.73,3.7.81.21.8.06,1.8.06,2.62,0,1.14,0,2.28-.01,3.42,0,2.27-.02,4.55-.03,6.82-.02.12-.04.24-.04.37-.01,2.49-.02,4.98-.03,7.47,0,2.13-.26,4.41.15,6.52.83,4.29,5.04,4.17,8.46,3.72,7.73-1.02,15.52,2.08,20.6,7.94.19.21.39.36.59.46h0c-.01,2.13-.02,4.26-.03,6.39,0,2.13-.26,4.42.15,6.52.41,2.17,1.7,3.21,3.31,3.65-.42-1.97-.87-3.96-1.35-5.91-.43-1.74-.15-3.17.91-4.64.27-.38.55-.77.83-1.16,0-1.98.01-3.95.02-5.92,0-1.06-.7-1.66-1.51-1.82,0,0,0,0,0,0-.06-.1-.12-.2-.21-.29-4.75-5.49-11.7-8.79-18.93-9.21-1.82-.11-3.61.04-5.4.29-1.19.17-3.29.73-3.7-.81-.21-.8-.06-1.8-.06-2.62,0-1.14,0-2.28.01-3.42,0-2.27.02-4.55.03-6.82.02-.12.04-.24.04-.37,0-2.49.02-4.98.03-7.47,0-2.13.26-4.41-.15-6.52-.83-4.29-5.04-4.17-8.46-3.72-7.73,1.02-15.52-2.08-20.6-7.94-.17-.2-.36-.34-.56-.44,0,0-.01-.02-.02-.02-4.67-4.6-10.99-7.36-17.55-7.74-1.82-.1-3.61.04-5.41.29-1.19.17-3.29.73-3.7-.81-.22-.8-.06-1.8-.06-2.62,0-1.14.01-2.28.01-3.42.01-2.38.02-4.77.03-7.15,0-.61-.22-1.07-.57-1.37-1,.32-1.79.96-2.5,2-.26.37-.51.74-.77,1.12,0,1.91-.01,3.81-.02,5.72,0,2.13-.26,4.42.15,6.52.82,4.29,5.04,4.18,8.46,3.72Z"/>
  <path class="cls-1" d="M54.29,6.48c1.91-.25,3.83-.25,5.7-.02-.08-.4-.09-.84-.01-1.32.13-.82.24-1.67.34-2.5-.54-.07-1.09-.11-1.64-.15-1.82-.11-3.61.03-5.41.29-1.19.17-3.29.73-3.7-.81-.05-.18-.08-.37-.1-.57-1.27.04-2.53.13-3.8.25.03.37.09.74.15,1.1.82,4.29,5.04,4.18,8.46,3.72Z"/>
  <path class="cls-1" d="M60.49,1.24c.03-.25.06-.5.1-.76-.29-.14-.68-.18-1.32-.14-1.08.05-2.17.2-3.25.37,1.28.6,2.9.66,4.47.54Z"/>
  <polygon class="cls-1" points="124.54 108.33 124.71 108.3 124.73 108.13 124.55 108.14 124.54 108.33"/>
  <polygon class="cls-1" points="123.42 109.46 123.59 109.43 123.61 109.26 123.43 109.27 123.42 109.46"/>
  <path class="cls-1" d="M87.3,118.49c-1.2.17-3.29.73-3.71-.81-.21-.8-.06-1.8-.06-2.62,0-1.14,0-2.28.01-3.43.01-2.38.02-4.77.03-7.15,0-.91-.52-1.48-1.17-1.72-.07-.13-.15-.26-.26-.38-4.25-4.91-10.26-8.07-16.65-8.98.58,1.33.88,2.69.9,4.04,5.01,1.04,9.63,3.72,13.04,7.65.1.11.2.21.31.29h0c0,2.19-.01,4.38-.02,6.57-.01,2.12-.26,4.41.15,6.51.82,4.29,5.04,4.18,8.46,3.72,5.4-.71,10.84.59,15.36,3.44.72-1.13,1.15-2.37,1.45-3.63-3.75-2.23-8.04-3.55-12.43-3.8-1.82-.11-3.6.03-5.4.29Z"/>
  <path class="cls-1" d="M95.04,113.1c-1.19.17-3.29.73-3.7-.81-.22-.8-.07-1.8-.06-2.62,0-1.14.01-2.28.01-3.42.01-2.39.02-4.77.03-7.15,0-.5-.15-.89-.4-1.19,0,0,0,0,0,0-.07-.28-.21-.56-.44-.82-4.75-5.49-11.7-8.79-18.93-9.22-1.82-.11-3.61.03-5.4.29-1.2.17-3.29.73-3.71-.81-.21-.8-.06-1.8-.06-2.62,0-1.14.01-2.28.02-3.42.01-2.38.02-4.77.03-7.15,0-.39-.09-.73-.26-.99,0-2.01.02-4.03.02-6.04,0-2.13.26-4.41-.15-6.52-.83-4.29-5.04-4.17-8.46-3.72-7.73,1.02-15.52-2.08-20.6-7.94-.2-.23-.42-.39-.64-.49-4.71-4.93-11.26-7.87-18.07-8.27-1.82-.11-3.6.04-5.4.29-.35.05-.77.13-1.21.18-.08,1.17-.17,2.41-.27,3.73.84-.01,1.69-.1,2.5-.21,7.73-1.01,15.53,2.08,20.6,7.94.2.23.41.39.64.49h0c4.71,4.93,11.27,7.88,18.07,8.28,1.82.11,3.61-.04,5.4-.29,1.19-.17,3.29-.73,3.7.81.21.8.06,1.8.06,2.62,0,1.14,0,2.28-.01,3.42,0,2.38-.02,4.77-.03,7.15,0,.39.1.71.26.97,0,0,0,.01,0,.02,0,1.62-.02,3.24-.02,4.86v.21c.69,2.18,1.83,4.46,3.43,6.91.24.37.42.75.59,1.12.18.39.36.76.57,1.01.65.78,1.21,1.57,1.66,2.37.79-.02,1.59-.1,2.35-.2,7.58-1,15.23,1.96,20.31,7.61,0,2.37-.02,4.73-.03,7.1,0,2.12-.26,4.42.15,6.52.82,4.29,5.04,4.17,8.46,3.72,3.4-.45,6.82-.1,10.01.93.39-1.33.91-2.49,1.59-3.52-2.32-.78-4.75-1.27-7.21-1.41-1.82-.1-3.6.04-5.4.29Z"/>
  <path class="cls-1" d="M100.02,107.97c-1.19.17-3.29.73-3.7-.81-.21-.8-.06-1.8-.06-2.62,0-1.14.01-2.28.02-3.42,0-2.39.02-4.77.03-7.16,0-.71-.32-1.22-.77-1.51h0s0,0,0,0c-.08-.18-.18-.36-.33-.54-4.75-5.49-11.7-8.79-18.93-9.21-1.82-.11-3.61.04-5.4.29-1.19.17-3.29.73-3.7-.81-.21-.8-.06-1.8-.06-2.62,0-1.14,0-2.28.01-3.42,0-2.38.02-4.77.03-7.15,0-.04,0-.08-.01-.12,0-2.26.02-4.51.03-6.77,0-2.13.26-4.41-.15-6.52-.83-4.29-5.04-4.17-8.46-3.72-7.73,1.02-15.52-2.08-20.6-7.94-.12-.14-.24-.24-.37-.33,0,0,0,0,0-.01-4.73-5.07-11.39-8.11-18.3-8.52-1.82-.11-3.61.03-5.41.29-1.19.17-3.29.73-3.7-.81-.22-.8-.07-1.8-.06-2.62,0-.45,0-.9,0-1.35-.33.46-.65.92-.97,1.37-.73,1.04-1.05,1.84-1.1,2.77-.05,1.07-.11,2.15-.18,3.29,1.73,1.52,4.58,1.37,7.03,1.04,7.73-1.01,15.53,2.08,20.6,7.94.12.14.25.26.38.34,0,0,.01,0,.02,0,4.72,5.06,11.37,8.1,18.28,8.5,1.82.11,3.61-.04,5.4-.29,1.19-.17,3.29-.73,3.7.81.21.8.06,1.8.06,2.62,0,1.14,0,2.28-.01,3.42,0,2.38-.02,4.77-.03,7.15,0,.04,0,.08.01.12,0,2.26-.02,4.51-.03,6.77,0,2.13-.26,4.41.15,6.52.83,4.29,5.04,4.17,8.46,3.72,7.72-1.02,15.51,2.07,20.59,7.93,0,2.28-.02,4.55-.03,6.83,0,2.12-.26,4.42.15,6.52.82,4.29,5.05,4.17,8.46,3.72,2.83-.37,5.67-.19,8.38.48.24-.23.49-.45.76-.66.91-.73,1.8-1.52,2.67-2.32-2.39-.83-4.89-1.33-7.42-1.48-1.82-.11-3.61.04-5.41.29Z"/>
  <path class="cls-1" d="M107.3,102.67c-1.19.17-3.29.73-3.7-.81-.21-.8-.06-1.8-.06-2.61,0-1.15.01-2.29.02-3.42,0-2.38.02-4.77.03-7.15,0-.85-.45-1.4-1.04-1.67h0s0,0,0,0c-.08-.18-.18-.36-.33-.53-4.75-5.49-11.7-8.79-18.93-9.21-1.82-.11-3.61.04-5.4.29-1.19.17-3.29.73-3.7-.81-.21-.8-.06-1.8-.06-2.62,0-1.14,0-2.28.01-3.42,0-2.38.02-4.77.03-7.15,0-.2-.03-.37-.08-.54,0-2.42.02-4.84.03-7.26,0-2.13.26-4.41-.15-6.52-.83-4.29-5.04-4.17-8.46-3.72-5.12.67-10.27-.47-14.64-3.01,0-.04,0-.17,0-.17,0,0-.17.02-.17.02v.05c-2.16-1.28-4.13-2.9-5.8-4.83-.22-.25-.46-.42-.71-.51h0s0,0,0,0c-4.63-4.39-10.79-7.02-17.18-7.39-1.82-.1-3.61.04-5.41.29-1.19.17-3.29.72-3.7-.81-.21-.8-.06-1.8-.06-2.62l.02-3.42c0-1.18,0-2.36.01-3.54-1.3,1.86-2.6,3.69-3.89,5.52v.02s0,0,0,0c-.05,1.62-.11,3.27.19,4.82.82,4.29,5.05,4.17,8.47,3.72,5.11-.68,10.26.45,14.63,3,0,0,0,0,0,0,0,.02,0,.18,0,.18,0,0,.17-.02.17-.02v-.05s0,0,0,0c2.16,1.28,4.12,2.91,5.79,4.83.22.25.46.42.71.52,0,0,0,0,0,0,4.63,4.39,10.79,7.01,17.18,7.39,1.82.11,3.61-.04,5.4-.29,1.19-.17,3.29-.73,3.7.81.21.8.06,1.8.06,2.62,0,1.14,0,2.28-.01,3.42,0,2.38-.02,4.77-.03,7.15,0,.2.03.37.08.54,0,2.42-.02,4.84-.03,7.26,0,2.13-.26,4.41.15,6.52.83,4.29,5.04,4.17,8.46,3.72,7.73-1.02,15.52,2.08,20.6,7.94.08.09.17.17.25.24,0,0,0,0,0,.01,0,2.23-.02,4.47-.03,6.7,0,2.13-.26,4.42.15,6.52.82,4.29,5.05,4.18,8.47,3.72,2.44-.32,4.89-.23,7.26.22.56-.53,1.13-1.05,1.71-1.57.6-.54.86-1.07.85-1.78-1.77-.46-3.59-.76-5.43-.86-1.82-.11-3.61.03-5.41.29Z"/>
  <path class="cls-1" d="M80,143.21s.03,0,.05,0c-1.98-1.23-4.12-2.19-6.35-2.88,1.4,2.53,3.25,3.29,6.31,2.89Z"/>
  <path class="cls-1" d="M71.36,133.94c.36,1.07.7,2.15,1.04,3.22.06.19.12.38.18.56,5.72,0,11.29,2.16,15.56,5.95,1.12-.4,2.04-1.25,2.84-2.61-4.59-4.24-10.64-6.76-16.9-7.13-.91-.06-1.82-.05-2.72.01Z"/>
  <path class="cls-1" d="M74.82,128.81c-1.19.17-3.29.73-3.7-.81-.22-.8-.06-1.8-.06-2.62l.02-3.42c0-2.35.02-4.7.03-7.04v-.11s0-.05,0-.06c-.02-.72-.36-1.22-.85-1.51-2.21-2.46-4.88-4.46-7.82-5.92-.25,1.07-.06,2.29.54,3.87l.46,1.19c1.39.95,2.67,2.04,3.83,3.28,0,2.21-.01,4.41-.02,6.62v.06c1.25,3.36,2.48,6.75,3.63,10.15,1.54.38,3.35.24,4.98.02,6.44-.84,12.92,1.16,17.84,5.25.27-.34.55-.68.83-1.01.54-.65,1.08-1.31,1.62-1.96-4.46-3.71-10.09-5.91-15.9-6.25-1.82-.11-3.61.03-5.41.29Z"/>
  <path class="cls-1" d="M82.52,123.42c-1.19.17-3.29.72-3.7-.81-.21-.8-.06-1.8-.06-2.62l.02-3.42c0-2.2.02-4.39.03-6.59v-.03c.08-.36.06-.73-.08-1.11-.11-.41-.35-.72-.66-.93h0c-3.23-3.61-7.43-6.23-12.02-7.67-.3,1.17-.81,2.36-1.52,3.55,3.95,1.17,7.57,3.38,10.44,6.41,0,2.22-.02,4.45-.03,6.67,0,2.13-.26,4.42.15,6.52.82,4.29,5.05,4.17,8.47,3.72,5.59-.74,11.22.68,15.83,3.75.82-.99,1.66-1.98,2.5-2.97-4.1-2.81-8.95-4.48-13.95-4.77-1.82-.1-3.61.04-5.41.29Z"/>
  <path class="cls-1" d="M119.72,78.71c0,.25,0,.49-.01.74,1.26-1.78,2.55-3.53,3.87-5.37,0-.95.01-1.89.01-2.84,0-.7-.3-1.2-.74-1.5h0c-.06-.11-.14-.22-.23-.33-4.75-5.49-11.7-8.79-18.93-9.21-1.82-.11-3.61.04-5.4.29-1.19.17-3.29.73-3.7-.81-.21-.8-.06-1.8-.06-2.62,0-1.14,0-2.28.01-3.42,0-2.1.02-4.19.03-6.29.05-.17.08-.35.08-.55,0-2.49.02-4.98.03-7.47,0-2.13.26-4.41-.15-6.52-.83-4.29-5.04-4.17-8.46-3.72-5.12.67-10.27-.47-14.64-3.01,0-.04,0-.17,0-.17,0,0-.17.02-.17.02v.05c-2.16-1.28-4.13-2.9-5.8-4.83-.22-.25-.45-.41-.69-.51,0,0,0,0,0,0-4.63-4.4-10.8-7.02-17.19-7.39-1.82-.11-3.61.03-5.41.29-1.19.17-3.29.73-3.7-.81-.21-.8-.06-1.8-.06-2.62,0-1.14.01-2.29.02-3.43,0-1.37,0-2.75.02-4.14-1.27.17-2.55.34-3.84.48,0,1.32-.01,2.65-.02,3.97,0,2.12-.25,4.41.15,6.51.82,4.29,5.05,4.18,8.47,3.72,5.11-.67,10.26.46,14.63,3h0s0,0,0,0c0,.02,0,.17,0,.18,0,0,.17-.02.17-.02v-.05s0,0,0,0c2.16,1.28,4.12,2.91,5.79,4.83.22.26.46.42.7.52,0,0,0,0,0,0,4.63,4.39,10.79,7.01,17.18,7.39,1.82.11,3.61-.04,5.4-.29,1.19-.17,3.29-.73,3.7.81.21.8.06,1.8.06,2.62,0,1.14,0,2.28-.01,3.42,0,2.1-.02,4.19-.03,6.29-.05.17-.08.35-.08.55,0,2.49-.02,4.98-.03,7.47,0,2.13-.26,4.41.15,6.52.83,4.29,5.04,4.17,8.46,3.72,7.65-1.01,15.37,2.02,20.45,7.78h0c0,2.25-.02,4.5-.03,6.75Z"/>
  <path class="cls-1" d="M129.14,63.24s0,0,0,0c-4.75-5.38-11.62-8.62-18.77-9.04-1.82-.11-3.61.04-5.4.29-1.19.17-3.29.73-3.7-.81-.21-.8-.06-1.8-.06-2.62,0-1.14,0-2.28.01-3.42,0-1.58.01-3.16.02-4.74.1-.23.16-.5.17-.8,0-2.49.02-4.98.03-7.47,0-2.13.26-4.41-.15-6.52-.83-4.29-5.04-4.17-8.46-3.72-7.43.98-14.93-1.86-20.01-7.29-.06-.09-.11-.17-.19-.26-4.75-5.49-11.7-8.79-18.93-9.22-1.82-.11-3.6.03-5.4.29-1.2.17-3.29.73-3.71-.81-.21-.8-.06-1.8-.06-2.62,0-.9,0-1.8.01-2.71-1.29.14-2.58.3-3.85.48-.05,1.87-.18,3.82.17,5.64.82,4.29,5.04,4.18,8.46,3.72,7.41-.97,14.89,1.83,19.97,7.24,0,0,0,0,0,0,0,0,.02.02.03.03.06.09.12.19.2.28,4.75,5.49,11.7,8.79,18.93,9.21,1.82.11,3.61-.04,5.4-.29,1.19-.17,3.29-.73,3.7.81.21.8.06,1.8.06,2.62,0,1.14,0,2.28-.01,3.42,0,1.58-.01,3.16-.02,4.74-.1.23-.16.5-.17.8-.01,2.49-.02,4.98-.03,7.47,0,2.13-.26,4.41.15,6.52.83,4.29,5.04,4.17,8.46,3.72,7.73-1.02,15.52,2.08,20.6,7.94.07.08.14.14.22.21,0,0,0,0,0,.01,0,1.08-.01,2.16-.01,3.24,1.22-1.71,2.46-3.45,3.73-5.23-.22-.62-.77-1-1.37-1.11Z"/>
  <path class="cls-1" d="M60.51,89.64c-.14-.3-.28-.6-.43-.83-.53-.81-1.07-1.69-1.59-2.61.03.65.09,1.31.21,1.94.41,2.1,1.62,3.14,3.15,3.6-.15-.19-.3-.39-.46-.58-.4-.48-.65-1.03-.88-1.51Z"/>
  <path class="cls-1" d="M61.86,91.74c.06.02.13.03.19.05-.06-.02-.13-.04-.19-.06h0Z"/>
  <path class="cls-1" d="M128.67,53.82c-4.16,1.05-5,.74-7.6-3.47-1.92-.54-3.91-.88-5.92-1-1.82-.11-3.6.03-5.4.29-1.19.17-3.29.73-3.71-.81-.21-.8-.06-1.8-.06-2.61,0-1.15,0-2.29.01-3.42.01-1.8.01-3.61.02-5.42.06-.19.1-.41.1-.65,0-2.49.02-4.98.03-7.47,0-1.08.07-2.19.07-3.31v-.05c-.49-.81-.98-1.62-1.47-2.43-.81-1.33-.78-2.57-.53-3.67-1.75-1.23-4.39-1.08-6.68-.77-7.28.96-14.62-1.73-19.69-6.95,0,0-.01-.01-.02-.02,0,0,.01.01.01.02-1.37,1.37-2.86,1.23-4.07.81-.21-.07-.41-.15-.6-.23.27.26.54.53.81.8.06.11.14.23.24.34,4.75,5.49,11.7,8.8,18.93,9.22,1.82.11,3.61-.03,5.41-.29,1.19-.17,3.29-.73,3.7.81.22.8.06,1.8.06,2.61,0,1.14-.01,2.29-.02,3.42,0,1.8-.01,3.61-.02,5.42v.02c-.06.19-.1.4-.1.63-.01,2.49-.02,4.98-.03,7.46-.01,2.13-.26,4.42.15,6.52.82,4.29,5.04,4.18,8.46,3.72,7.73-1.02,15.53,2.07,20.6,7.94.15.18.32.32.49.42v.74c.14-.2.28-.37.42-.57.68-.96,1.37-1.93,2.07-2.91.1-.14.2-.28.3-.42-.23-.1-.49-.16-.75-.17-1.54-1.75-3.31-3.26-5.24-4.54Z"/>
  <path class="cls-1" d="M131.83,52.42c1.51,1.17,2.97,2.4,4.38,3.7.42-.92.63-1.8.58-2.75-.73-.97-1.8-1.22-4.96-.95Z"/>
  <path class="cls-1" d="M118.8,48.4c.34-.05.68-.08,1.01-.1-.73-1.19-1.46-2.38-2.18-3.58-1.21.19-3.16.65-3.56-.82-.21-.8-.06-1.8-.06-2.62,0-.8,0-1.59,0-2.38v-.11c-.89-1.48-1.78-2.96-2.66-4.42-.38-.64-.76-1.27-1.15-1.9-.01,1.9-.02,3.8-.02,5.71-.01,2.12-.26,4.42.14,6.52.83,4.29,5.05,4.17,8.47,3.72Z"/>
  <path class="cls-1" d="M104.87,17.82c.07-.22.14-.43.19-.64.09-.32.18-.65.29-.97.33-1.07.5-1.75.34-2.31-.07,0-.15.01-.22.02-4.89.65-9.81-.36-14.05-2.67h0c-2.52-.3-5.05-.57-7.56-.78,4.63,4.42,10.82,7.06,17.23,7.44,1.27.07,2.52.02,3.77-.1Z"/>
  <polygon class="cls-1" points="31.85 58.5 31.83 58.67 32.01 58.66 32.02 58.47 31.85 58.5"/>
  <path class="cls-1" d="M45.6,62.27c-7.38.97-14.83-1.81-19.91-7.18-.06-.11-.14-.21-.22-.31-4.59-5.3-11.21-8.56-18.17-9.16-.02.34-.05.69-.08,1.04-.09,1.16.17,1.91.94,2.66.1.09.19.19.29.28,5.15.77,9.98,3.28,13.6,7.11.06.11.14.22.23.33,3.6,4.15,8.45,7.05,13.72,8.4h0c1.63-.21,3.24-.46,4.82-.8,4.69-1.01,9.04-.5,13.26,1.58-.01-.07-.02-.15-.04-.23-.82-4.29-5.04-4.17-8.46-3.72Z"/>
</svg>